<?xml version="1.0" encoding="UTF-8" standalone="no"?>
<!DOCTYPE svg PUBLIC "-//W3C//DTD SVG 1.1//EN" "http://www.w3.org/Graphics/SVG/1.1/DTD/svg11.dtd">
<svg width="100%" height="100%" viewBox="0 0 300 101" version="1.1" xmlns="http://www.w3.org/2000/svg" xmlns:xlink="http://www.w3.org/1999/xlink" xml:space="preserve" xmlns:serif="http://www.serif.com/" style="fill-rule:evenodd;clip-rule:evenodd;stroke-linejoin:round;stroke-miterlimit:2;">
    <g transform="matrix(1,0,0,1,-500,-399)">
        <path d="M500,409.014C500,406.367 501.058,403.83 502.939,401.968C504.82,400.106 507.367,399.074 510.013,399.1C519.664,399.197 535.02,399.35 550.334,399.503C577.844,399.778 600,422.158 600,449.669C600,449.67 600,449.671 600,449.672C600,477.467 577.467,500 549.672,500L510,500C504.477,500 500,495.523 500,490L500,490C500,484.477 504.477,480 510,480L547.4,480C565.404,480 580,465.404 580,447.4C580,447.319 580,447.239 580,447.158C580,432.105 567.896,419.849 552.844,419.661C538.062,419.476 520.663,419.258 509.984,419.125C504.45,419.056 500,414.55 500,409.016C500,409.015 500,409.014 500,409.014Z" style="fill:white;"/>
    </g>
    <g transform="matrix(1,0,0,1,-500,-399)">
        <path d="M649.92,400C644.441,400 640,404.441 640,409.92C640,429.044 640,470.813 640,490C640,495.523 644.477,500 650,500L650,500C655.523,500 660,495.523 660,490L660,410.078C660,404.512 655.488,400 649.922,400C649.921,400 649.921,400 649.92,400Z" style="fill:white;"/>
    </g>
    <g transform="matrix(1,0,0,1,-500,-399)">
        <path d="M700,449.998C700,422.385 722.385,400 749.998,400L750.002,400C777.615,400 800,422.385 800,449.998L800,450.002C800,477.615 777.615,500 750.002,500L749.998,500C722.385,500 700,477.615 700,450.002L700,449.998ZM750,480C733.431,480 720,466.569 720,450C720,450 720,450 720,450C720,433.431 733.431,420 750,420C750,420 750,420 750,420C766.569,420 780,433.431 780,450C780,450 780,450 780,450C780,466.569 766.569,480 750,480L750,480Z" style="fill:white;"/>
    </g>
</svg>
